# xmcd
#
# Track frame offsets: 
#        150
#        15566
#        39404
#        54714
#        70353
#        82806
#        106114
#        122493
#        140188
#        153347
#        170617
#        190031
#        203067
#        228146
#        246957
#        268298
#
# Disc length: 3700 seconds
#
# Revision: 4
# Processed by: cddbd v1.5.2PL0 Copyright (c) Steve Scherf et al.
# Submitted via: ExactAudioCopy v1.3
#
DISCID=d60e7210
DTITLE=Various Artist - Lullaby: A Windham Hill Collection, Disc 2
DYEAR=2004
DGENRE=New Age
TTITLE0=Jim Brickman - Rock‐A‐Bye Baby
TTITLE1=Lisa Lynne - The Light and the Longing
TTITLE2=George Winston - Lullaby
TTITLE3=Keola Beamer - Shiny Shell Lullaby
TTITLE4=Jim Brickman - Little Stars
TTITLE5=Thea Suits-Silverman - Lullaby with Louisa
TTITLE6=Nightnoise - Three Little Nieces
TTITLE7=Tim Story - 1st Gymnopédie for Piano
TTITLE8=Jim Brickman - Night Prayer
TTITLE9=Øystein Sevåg - Children's Song
TTITLE10=Michael Manring - Sung to Sleep
TTITLE11=Scott Cossu - She Describes Infinity
TTITLE12=Liz Story - Peace Piece
TTITLE13=Richard Schönherz and Peter Scott - Peace of Mind
TTITLE14=Will Ackerman - A Region of Clouds
TTITLE15=Ludovico Einaudi - Cadenza
EXTD=YEAR: 2004
EXTT0=
EXTT1=
EXTT2=
EXTT3=
EXTT4=
EXTT5=
EXTT6=
EXTT7=
EXTT8=
EXTT9=
EXTT10=
EXTT11=
EXTT12=
EXTT13=
EXTT14=
EXTT15=
PLAYORDER=
